<svg width="243" height="243" viewBox="0 0 243 243" fill="none" xmlns="http://www.w3.org/2000/svg">
<path d="M121.083 0C54.1469 0 0 54.1469 0 121.083C0 187.853 54.1469 242.166 121.083 242.166C187.853 242.166 242.166 188.019 242.166 121.083C242 54.1469 187.853 0 121.083 0ZM121.083 234.36C58.4653 234.36 7.80645 183.701 7.80645 121.083C7.80645 58.4653 58.4653 7.80645 121.083 7.80645C183.701 7.80645 234.36 58.4653 234.36 121.083C234.36 183.535 183.535 234.36 121.083 234.36Z" fill="#FFCF2D"/>
<path d="M120.84 26C68.5202 26 26 68.5202 26 120.84C26 173.16 68.5202 215.68 120.84 215.68C173.16 215.68 215.68 173.326 215.68 121.006C215.68 68.5202 173.16 26 120.84 26ZM120.84 201.23C76.4928 201.23 40.4502 165.187 40.4502 120.84C40.4502 76.4928 76.4928 40.4502 120.84 40.4502C165.187 40.4502 201.23 76.4928 201.23 120.84C201.23 165.187 165.187 201.23 120.84 201.23Z" fill="#FFCF2D"/>
</svg>
