<svg width="90" height="85" viewBox="0 0 90 85" fill="none" xmlns="http://www.w3.org/2000/svg">
<g opacity="0.6">
<path d="M78.8243 29.7173L90 29.7173L90 1.08268e-06L60.2827 0L60.2827 11.0911L78.8243 11.0911L78.8243 29.7173Z" fill="white"/>
<path d="M58.7598 49.7817L69.8509 49.7817L69.8509 20.0645L40.2183 20.0645L40.2183 31.2402L58.7598 31.2402L58.7598 49.7817Z" fill="white"/>
<path d="M38.606 69.8494L49.7818 69.8494L49.7818 40.2168L20.0645 40.2168L20.0645 51.3079L38.606 51.3079L38.606 69.8494Z" fill="white"/>
<path d="M18.5416 84.7173L29.7173 84.7173L29.7173 55L0 55L-5.86103e-07 66.1757L18.5416 66.1757L18.5416 84.7173Z" fill="white"/>
</g>
</svg>
